<?xml version="1.0" encoding="UTF-8"?>
<svg width="62px" height="42px" viewBox="0 0 62 42" version="1.1" xmlns="http://www.w3.org/2000/svg" xmlns:xlink="http://www.w3.org/1999/xlink">
    <!-- Generator: Sketch 40.2 (33826) - http://www.bohemiancoding.com/sketch -->
    <title>Group 2</title>
    <desc>Created with Sketch.</desc>
    <defs>
        <rect id="path-1" x="0" y="0" width="62" height="42" rx="2"></rect>
        <mask id="mask-2" maskContentUnits="userSpaceOnUse" maskUnits="objectBoundingBox" x="0" y="0" width="62" height="42" fill="white">
            <use xlink:href="#path-1"></use>
        </mask>
    </defs>
    <g id="Page-1" stroke="none" stroke-width="1" fill="none" fill-rule="evenodd">
        <g id="客户管理" transform="translate(-128.000000, -389.000000)" stroke="#FFA35E">
            <g id="Group-9" transform="translate(50.000000, 140.000000)">
                <g id="Group-3" transform="translate(0.000000, 217.000000)">
                    <g id="Group-2" transform="translate(78.000000, 32.000000)">
                        <use id="Rectangle-805" mask="url(#mask-2)" stroke-width="2" xlink:href="#path-1"></use>
                        <path d="M0.94921875,6.71582031 L61.7084016,6.71582031" id="Path-1719"></path>
                        <g id="Group-11" transform="translate(7.000000, 20.000000)" stroke-linecap="round">
                            <path d="M0.5,0 L0.5,14.8650543" id="Path-1720"></path>
                            <path d="M7.27660291,15.0217391 L4.40820312,15.0217391" id="Path-1720"></path>
                            <path d="M30.4999995,15.0217391 L13.0134025,15.0217391" id="Path-1720"></path>
                            <path d="M37.4999995,15.0217391 L36.4999995,15.0217391" id="Path-1720"></path>
                            <path d="M45,15.0217391 L41,15.0217391" id="Path-1720"></path>
                            <path d="M2.5,0 L2.5,11.7391304" id="Path-1720"></path>
                            <path d="M8.5,0 L8.5,11.7391304" id="Path-1720"></path>
                            <path d="M13.5,0 L13.5,11.7391304" id="Path-1720"></path>
                            <path d="M18.5,0 L18.5,11.7391304" id="Path-1720"></path>
                            <path d="M22.5,0 L22.5,11.7391304" id="Path-1720"></path>
                            <path d="M31.5,0 L31.5,11.7391304" id="Path-1720"></path>
                            <path d="M36.5,0 L36.5,11.7391304" id="Path-1720"></path>
                            <path d="M4.5,0 L4.5,11.7391304" id="Path-1720"></path>
                            <path d="M10.5,0 L10.5,11.7391304" id="Path-1720"></path>
                            <path d="M25.5,0 L25.5,11.7391304" id="Path-1720"></path>
                            <path d="M33.5,0 L33.5,11.7391304" id="Path-1720"></path>
                            <path d="M39.5,0 L39.5,11.7391304" id="Path-1720"></path>
                            <path d="M44.5,0 L44.5,11.7391304" id="Path-1720"></path>
                            <path d="M47.5,0 L47.5,14.8650543" id="Path-1720"></path>
                        </g>
                    </g>
                </g>
            </g>
        </g>
    </g>
</svg>