<?xml version="1.0" encoding="UTF-8"?>
<svg width="56px" height="60px" viewBox="0 0 56 60" version="1.1" xmlns="http://www.w3.org/2000/svg" xmlns:xlink="http://www.w3.org/1999/xlink">
    <!-- Generator: Sketch 40.2 (33826) - http://www.bohemiancoding.com/sketch -->
    <title>Group 12</title>
    <desc>Created with Sketch.</desc>
    <defs>
        <path d="M0,34.1000181 L0,23.8999819 M0,14.1000181 L0,1.99630737 C0,0.893777255 0.902308181,0 1.99306965,0 L54.0069304,0 C55.1076723,0 56,0.894730389 56,1.99630737 L56,58.0036926 C56,59.1062227 55.0976918,60 54.0069304,60 L1.99306965,60 C0.892327676,60 0,59.1052696 0,58.0036926 L0,43.8999819 M0,14.1000181 C0.32310994,14.0344303 0.657534161,14 1,14 C3.76142375,14 6,16.2385763 6,19 C6,21.7614237 3.76142375,24 1,24 C0.657534161,24 0.32310994,23.9655697 0,23.8999819 L0,23.8999819 L0,23.8999819 L0,23.8999819 M0,43.8999819 C0.32310994,43.9655697 0.657534161,44 1,44 C3.76142375,44 6,41.7614237 6,39 C6,36.2385763 3.76142375,34 1,34 C0.657534161,34 0.32310994,34.0344303 0,34.1000181 L0,34.1000181 L0,34.1000181 L0,34.1000181 L0,34.1000181 L0,34.1000181 L0,34.1000181" id="path-1"></path>
        <mask id="mask-2" maskContentUnits="userSpaceOnUse" maskUnits="objectBoundingBox" x="0" y="0" width="56" height="60" fill="white">
            <use xlink:href="#path-1"></use>
        </mask>
    </defs>
    <g id="Page-1" stroke="none" stroke-width="1" fill="none" fill-rule="evenodd">
        <g id="客户管理" transform="translate(-133.000000, -278.000000)" stroke="#FFFFFF">
            <g id="Group-9" transform="translate(50.000000, 140.000000)">
                <g id="Group" transform="translate(0.000000, 109.000000)">
                    <g id="Group-12" transform="translate(83.000000, 29.000000)">
                        <use id="Combined-Shape" mask="url(#mask-2)" stroke-width="2" xlink:href="#path-1"></use>
                        <path d="M25.6655732,22 L22.9921405,22 C20.230547,22 18,24.2385763 18,27 L18,30.000385 C18,31.1125667 18.8914705,32 19.991155,32 L38.008845,32 C39.1103261,32 40,31.1047419 40,30.000385 L40,27 C40,24.2441952 37.7649426,22 35.0078595,22 L32.796721,22 M32.796721,22 C31.6437613,23.2426061 30.3136248,24.0908203 29.2311471,24.0908203 C28.1486694,24.0908203 26.8185329,23.2426061 25.6655732,22 M32.796721,22 L32.796721,22 L32.796721,22 L32.796721,22 L32.796721,22 L32.796721,22" id="Combined-Shape" stroke-linecap="round" stroke-linejoin="round"></path>
                        <path d="M29.2311471,21.0908203 C31.7016996,21.0908203 35.4622942,16.6725146 35.4622942,13.2311471 C35.4622942,9.78977958 32.6725146,7 29.2311471,7 C25.7897796,7 23,9.78977958 23,13.2311471 C23,16.6725146 26.7605946,21.0908203 29.2311471,21.0908203 Z" id="Oval-561"></path>
                        <path d="M10.2363281,0.93359375 L10.2363281,58.9335938" id="Path-1743" stroke-linecap="round"></path>
                        <path d="M19.0761719,39.5429688 L27.6758957,39.5429688" id="Path-1747" stroke-linecap="round"></path>
                        <path d="M19.0761719,45.5429688 L37.0761719,45.5429688" id="Path-1747" stroke-linecap="round"></path>
                        <path d="M19.0761719,49.5429688 L31.0761719,49.5429688" id="Path-1747" stroke-linecap="round"></path>
                    </g>
                </g>
            </g>
        </g>
    </g>
</svg>