<?xml version="1.0" encoding="UTF-8"?>
<svg width="120px" height="89px" viewBox="0 0 120 89" version="1.1" xmlns="http://www.w3.org/2000/svg" xmlns:xlink="http://www.w3.org/1999/xlink">
    <!-- Generator: Sketch 40.2 (33826) - http://www.bohemiancoding.com/sketch -->
    <title>Group 9</title>
    <desc>Created with Sketch.</desc>
    <defs>
        <path d="M59.7021118,89 L26.5169961,89 C25.4077604,89 24.4425134,88.1062352 24.3722604,87.0047622 C24.3722604,87.0047622 23.7519531,79.8652344 24.5085468,74.8081055 C25.2651405,69.7509766 26.5229873,66.5777987 26.5229873,66.5777987 C26.5229873,66.5777987 25.6206054,60.7822266 25.6206054,56.769043 C25.6206054,52.7558594 28.0185546,47.9624023 28.0185546,47.9624023 C28.0185546,47.9624023 27.7882299,43.44273 28.0185546,41.1206055 C28.3481456,37.7976818 29.554864,31.0056529 29.554864,31.0056529 C29.7430662,29.9188144 29.6213793,29.88583 29.2419587,30.929678 C29.2419587,30.929678 28.7436523,32.9702148 27.0406036,35.1347656 C25.3375549,37.2993164 23.3417894,37.8178824 23.3417894,37.8178824 C22.3316111,38.2412537 21.5307326,39.4755276 21.4998191,40.586617 C21.4998191,40.586617 21.7070312,41.6979218 20.8266601,45.2613144 C19.946289,48.824707 15.202763,51.4729272 15.202763,51.4729272 C15.202763,51.4729272 15.930664,53.5939064 15.2027625,55.840332 C14.4748611,58.0867577 12.1515605,59.6296254 12.1515605,59.6296254 C11.2928756,60.3207208 9.8531967,60.386026 8.92976102,59.7713706 L2.37086242,55.4056497 C1.45019662,54.792838 0.580173485,53.4079575 0.486048461,52.3175237 C0.486048461,52.3175237 0.144027168,51.1826172 0.703849518,48.824707 C1.26367187,46.4667969 4.176502,45.2613161 4.176502,45.2613161 C4.176502,45.2613161 3.36816427,40.0698242 5.2866213,36.3007812 C7.20507834,32.5317383 7.91854856,32.6255468 7.91854856,32.6255468 C8.79286214,31.9525698 9.59185382,30.5072048 9.74425293,29.4235416 C9.74425293,29.4235416 9.78955071,27.1074219 11.3496093,23.9248047 C12.9096679,20.7421875 15.2280101,19.662138 15.2280101,19.662138 C16.1537977,19.0593543 17.3151637,17.7793353 17.8511574,16.8057439 C17.8511574,16.8057439 19.3139724,13.7011719 21.5126991,11.7490234 C23.7114257,9.796875 26.040603,7.87011474 26.040603,7.87011474 C26.040603,7.87011474 29.4243138,3.81152344 31.9365227,2.27197266 C34.4487316,0.732421875 36.6222624,0.442322001 36.6222624,0.442322001 C37.6960858,0.198034305 39.4609528,-1.63424829e-13 40.5666898,-1.63424829e-13 L48.8833614,-1.63424829e-13 C49.5330977,5.97646138 54.1035763,10.7063062 59.8344126,11.2980616 C59.7495224,11.4758225 59.7021118,11.6750282 59.7021118,11.8854025 L59.7021118,89 Z" id="path-1"></path>
        <mask id="mask-2" maskContentUnits="userSpaceOnUse" maskUnits="objectBoundingBox" x="0" y="0" width="59.4518005" height="89" fill="white">
            <use xlink:href="#path-1"></use>
        </mask>
        <path d="M59.7021118,89 L26.5169961,89 C25.4077604,89 24.4425134,88.1062352 24.3722604,87.0047622 C24.3722604,87.0047622 23.7519531,79.8652344 24.5085468,74.8081055 C25.2651405,69.7509766 26.5229873,66.5777987 26.5229873,66.5777987 C26.5229873,66.5777987 25.6206054,60.7822266 25.6206054,56.769043 C25.6206054,52.7558594 28.0185546,47.9624023 28.0185546,47.9624023 C28.0185546,47.9624023 27.7882299,43.44273 28.0185546,41.1206055 C28.3481456,37.7976818 29.554864,31.0056529 29.554864,31.0056529 C29.7430662,29.9188144 29.6213793,29.88583 29.2419587,30.929678 C29.2419587,30.929678 28.7436523,32.9702148 27.0406036,35.1347656 C25.3375549,37.2993164 23.3417894,37.8178824 23.3417894,37.8178824 C22.3316111,38.2412537 21.5307326,39.4755276 21.4998191,40.586617 C21.4998191,40.586617 21.7070312,41.6979218 20.8266601,45.2613144 C19.946289,48.824707 15.202763,51.4729272 15.202763,51.4729272 C15.202763,51.4729272 15.930664,53.5939064 15.2027625,55.840332 C14.4748611,58.0867577 12.1515605,59.6296254 12.1515605,59.6296254 C11.2928756,60.3207208 9.8531967,60.386026 8.92976102,59.7713706 L2.37086242,55.4056497 C1.45019662,54.792838 0.580173485,53.4079575 0.486048461,52.3175237 C0.486048461,52.3175237 0.144027168,51.1826172 0.703849518,48.824707 C1.26367187,46.4667969 4.176502,45.2613161 4.176502,45.2613161 C4.176502,45.2613161 3.36816427,40.0698242 5.2866213,36.3007813 C7.20507834,32.5317383 7.91854856,32.6255468 7.91854856,32.6255468 C8.79286214,31.9525698 9.59185382,30.5072048 9.74425293,29.4235416 C9.74425293,29.4235416 9.78955071,27.1074219 11.3496093,23.9248047 C12.9096679,20.7421875 15.2280101,19.662138 15.2280101,19.662138 C16.1537977,19.0593543 17.3151637,17.7793353 17.8511574,16.8057439 C17.8511574,16.8057439 19.3139724,13.7011719 21.5126991,11.7490234 C23.7114257,9.796875 27.040603,6.87011474 27.040603,6.87011474 C27.040603,6.87011474 29.4243138,3.81152344 31.9365227,2.27197266 C34.4487316,0.732421875 36.6222624,0.442322001 36.6222624,0.442322001 C37.6960858,0.198034305 39.4609528,1.63424829e-13 40.5666898,1.63424829e-13 L48.8833614,1.63424829e-13 C49.5330977,5.97646138 54.1035763,10.7063062 59.8344126,11.2980616 C59.7495224,11.4758225 59.7021118,11.6750282 59.7021118,11.8854025 L59.7021118,89 Z" id="path-3"></path>
        <mask id="mask-4" maskContentUnits="userSpaceOnUse" maskUnits="objectBoundingBox" x="0" y="0" width="59.4518005" height="89" fill="white">
            <use xlink:href="#path-3"></use>
        </mask>
    </defs>
    <g id="Page-1" stroke="none" stroke-width="1" fill="none" fill-rule="evenodd">
        <g id="预约入库" transform="translate(-245.000000, -589.000000)" stroke="#FFA35E">
            <g id="Group-6" transform="translate(26.000000, 380.000000)">
                <g id="Group-9" transform="translate(219.000000, 209.000000)">
                    <g id="Group-8">
                        <g id="Group-2">
                            <use id="Combined-Shape" mask="url(#mask-2)" stroke-width="4" stroke-linecap="round" xlink:href="#path-1"></use>
                            <path d="M5.64648438,45.8662109 L14.0146484,51.1230469" id="Path-1392" stroke-width="1.6"></path>
                            <path d="M14,32 L22.3681641,37.2568359" id="Path-1392" stroke-width="1.6" stroke-linecap="round"></path>
                            <path d="M25.6464844,9.86621094 L44.5,9.86621094" id="Path-1392" stroke-width="1.6" stroke-linecap="round"></path>
                            <path d="M29.6464844,28.8662109 L48.5,28.8662109" id="Path-1392" stroke-width="1.6" stroke-linecap="round"></path>
                            <path d="M30.6464844,28.8662109 C28.6464844,26.8662109 28.6464844,18.5 28.6464844,18.5" id="Path-1392" stroke-width="1.6" stroke-linecap="round"></path>
                        </g>
                        <g id="Group-2" transform="translate(90.000000, 44.500000) scale(-1, 1) translate(-90.000000, -44.500000) translate(60.000000, 0.000000)">
                            <use id="Combined-Shape" mask="url(#mask-4)" stroke-width="4" stroke-linecap="round" xlink:href="#path-3"></use>
                            <path d="M5.64648438,45.8662109 L14.0146484,51.1230469" id="Path-1392" stroke-width="1.6"></path>
                            <path d="M14,32 L22.3681641,37.2568359" id="Path-1392" stroke-width="1.6" stroke-linecap="round"></path>
                            <path d="M25.6464844,9.86621094 L44.5,9.86621094" id="Path-1392" stroke-width="1.6" stroke-linecap="round"></path>
                            <path d="M29.6464844,28.8662109 L48.5,28.8662109" id="Path-1392" stroke-width="1.6" stroke-linecap="round"></path>
                            <path d="M30.6464844,28.8662109 C28.6464844,26.8662109 28.6464844,18.5 28.6464844,18.5" id="Path-1392" stroke-width="1.6" stroke-linecap="round"></path>
                        </g>
                    </g>
                    <path d="M29.3945312,47.8 L47.507097,47.8" id="Path-1390" stroke-width="1.6" stroke-linecap="round"></path>
                    <path d="M28.3945312,66.8 L40.5202217,66.8" id="Path-1390" stroke-width="1.6" stroke-linecap="round"></path>
                    <path d="M72.6054688,47.8 L90.7180345,47.8" id="Path-1390" stroke-width="1.6" stroke-linecap="round" transform="translate(81.661752, 47.800000) scale(-1, 1) translate(-81.661752, -47.800000) "></path>
                    <path d="M78.6054688,66.8 L90.7311592,66.8" id="Path-1390" stroke-width="1.6" stroke-linecap="round" transform="translate(85.105469, 66.500000) scale(-1, 1) translate(-85.105469, -66.500000) "></path>
                </g>
            </g>
        </g>
    </g>
</svg>