<?xml version="1.0" encoding="UTF-8"?>
<svg width="113px" height="94px" viewBox="0 0 113 94" version="1.1" xmlns="http://www.w3.org/2000/svg" xmlns:xlink="http://www.w3.org/1999/xlink">
    <!-- Generator: Sketch 40.2 (33826) - http://www.bohemiancoding.com/sketch -->
    <title>Group 2</title>
    <desc>Created with Sketch.</desc>
    <defs>
        <path d="M52,93 L26.5048806,93 C25.3955728,93 24.5339328,92.0973343 24.5798242,90.9965432 L26.0498031,55.7363281 L29.844919,27.3253039 C29.9911737,26.2304113 29.6584905,26.1164528 29.0991693,27.0753668 L22.385145,38.586056 C21.8270242,39.5429121 20.9830391,41.1205875 20.5009207,42.1081124 L10.8736569,61.8276724 C10.3911493,62.8159943 9.2586311,63.1223331 8.34374583,62.5116584 L1.34766011,57.8418572 C0.432936346,57.2312904 -0.0537731915,55.8876922 0.267729906,54.8169818 L9.42367632,24.3246863 C9.7419711,23.2646606 10.5823507,21.722559 11.298466,20.8829448 L27.8112705,1.52239522 C28.5283935,0.681599555 29.9962514,0 31.1004256,0 L40.8126883,0 C40.8126883,7.04013245 45.4994709,13.0141295 52,15.123812 L52,93 Z M62,93 L86.0913547,93 C87.2008132,93 88.0870916,92.1030218 88.0712495,90.9965432 L87.5664085,55.7363281 L83.4172572,27.3136097 C83.2575632,26.219666 83.5590562,26.131677 84.0888642,27.1047746 L90.3238961,38.5566482 C90.8563035,39.5345201 91.6746464,41.1241059 92.1575219,42.117751 L101.731146,61.8180338 C102.215731,62.8151973 103.355148,63.1222253 104.279924,62.5116584 L111.35289,57.8418572 C112.277829,57.2311826 112.792023,55.8770075 112.501741,54.8169818 L104.151577,24.3246865 C103.86307,23.2711464 103.039695,21.7315878 102.316485,20.9004721 L85.43905,1.50486808 C84.7130508,0.670547328 83.2383,0 82.1388727,0 L73.5410156,0 C73.5410156,7.16718696 68.6835401,13.2294098 62,15.2342412 L62,93 Z" id="path-1"></path>
        <mask id="mask-2" maskContentUnits="userSpaceOnUse" maskUnits="objectBoundingBox" x="0" y="0" width="112.414192" height="93" fill="white">
            <use xlink:href="#path-1"></use>
        </mask>
    </defs>
    <g id="Page-1" stroke="none" stroke-width="1" fill="none" fill-rule="evenodd">
        <g id="预约入库" transform="translate(-28.000000, -588.000000)" stroke="#FFA35E">
            <g id="Group-6" transform="translate(26.000000, 380.000000)">
                <g id="Group-2" transform="translate(2.000000, 209.000000)">
                    <use id="Combined-Shape" mask="url(#mask-2)" stroke-width="4" xlink:href="#path-1"></use>
                    <path d="M60,13.8456803 C65.7840173,12.4167734 70.1005948,6.80449951 70.1005948,0.0988181769 C70.1005948,0.0658522294 70.1004904,0.0329127076 70.1002821,-2.12650605e-08 L44.1008851,-2.4158453e-13 C44.1006991,0.0329127076 44.1005948,0.0658522294 44.1005948,0.0988181769 C44.1005948,6.72651823 48.3173599,12.2860937 54,13.794137 L54,89.9977417 C54,91.1041859 54.8944962,92 55.9979131,92 L58.0020869,92 C59.1017394,92 60,91.1035584 60,89.9977417 L60,13.8456803 Z" id="Combined-Shape" stroke-width="2" stroke-linecap="round" stroke-linejoin="round"></path>
                </g>
            </g>
        </g>
    </g>
</svg>