<?xml version="1.0" encoding="UTF-8"?>
<svg width="52px" height="60px" viewBox="0 0 52 60" version="1.1" xmlns="http://www.w3.org/2000/svg" xmlns:xlink="http://www.w3.org/1999/xlink">
    <!-- Generator: Sketch 42 (36781) - http://www.bohemiancoding.com/sketch -->
    <title>Page 1</title>
    <desc>Created with Sketch.</desc>
    <defs>
        <polygon id="path-1" points="0.0496184438 2.90881482 4.2182438 2.90881482 4.2182438 0.0952927736 0.0496184438 0.0952927736"></polygon>
        <polygon id="path-3" points="3.97851441 2.90881482 0.130439481 2.90881482 0.130439481 0.0317497138 3.97851441 0.0317497138 3.97851441 2.90881482"></polygon>
        <polygon id="path-5" points="1.52162932e-16 39.2658197 1.52162932e-16 0.024167954 32.9596392 0.024167954 32.9596392 39.2658197 0 39.2658197"></polygon>
    </defs>
    <g id="Page-1" stroke="none" stroke-width="1" fill="none" fill-rule="evenodd">
        <g id="预约－订单" transform="translate(-1647.000000, -23.000000)">
            <g id="Page-1" transform="translate(1647.500000, 23.000000)">
                <path d="M14.6637493,53.2180907 C14.4569568,53.9007896 14.1637435,54.4459015 13.7849914,54.8553171 C13.3365735,55.264442 12.8543516,55.2477163 12.3372968,54.8039766 C11.6135965,54.0542295 10.9067983,53.1334442 10.2177839,52.0414751 C10.1482651,51.871164 10.1313631,51.7689192 10.166049,51.7345952 C10.199853,51.7008529 10.3033228,51.7345952 10.4761643,51.83684 C11.3033343,52.3483551 12.0440836,52.7577708 12.6992939,53.0646507 C13.2501527,53.3037553 13.8018934,53.3037553 14.353634,53.0646507 C14.5255937,52.9622605 14.6290634,52.9288091 14.6637493,52.9622605 C14.7323862,52.9622605 14.7323862,53.0479251 14.6637493,53.2180907 M9.70072911,48.716118 L9.70072911,50.8648595 L11.5618617,50.8648595 C11.7686542,50.899329 12.0440836,50.6778227 12.3890317,50.199759 C12.4576686,50.0975142 12.5611383,50.0975142 12.6992939,50.199759 C12.7679308,50.234083 12.8712536,50.3020039 13.0094092,50.4043941 C13.4916311,50.7114195 13.8187954,50.899329 13.9916369,50.9671044 C14.0604207,51.0015738 14.0951066,51.0358978 14.0951066,51.0694947 C14.0951066,51.1038187 14.0604207,51.1205444 13.9916369,51.1205444 C13.8883141,51.1894833 13.7332565,51.2229346 13.526464,51.2229346 L9.70072911,51.2229346 L9.70072911,53.7808009 L9.70072911,53.9854361 C9.90752161,54.0878264 10.0447954,54.2588647 10.1143141,54.4970966 C10.182951,54.838446 10.0965303,55.111002 9.85578674,55.3156371 C9.37282997,55.588193 8.77008934,55.6225171 8.04638905,55.4180274 C7.77007781,55.3156371 7.40822767,55.111002 6.96069164,54.8039766 C6.54710663,54.5314206 6.21920749,54.3436566 5.97846398,54.2412663 C5.70215274,54.1054247 5.58192795,54.0199055 5.61661383,53.9854361 C5.65056484,53.9176607 5.80562248,53.9343864 6.08178674,54.0366312 C6.426,54.1390215 6.89131988,54.3611095 7.4777464,54.7017317 C7.78786167,54.87277 8.02860519,54.991886 8.20144669,55.0598068 C8.85577522,55.264442 9.28714409,55.17965 9.4939366,54.8039766 C9.59725937,54.5994869 9.57962248,54.4124501 9.44220173,54.2412663 L9.33887896,54.2412663 L8.04638905,54.2412663 C7.73627378,54.2412663 7.58121614,54.0878264 7.58121614,53.7808009 L7.58121614,51.2229346 L3.96227378,51.2229346 C3.68596254,51.2229346 3.54868876,51.1205444 3.54868876,50.9160547 L3.54868876,48.3580429 C3.41053314,48.2901221 3.2554755,48.2557981 3.08336888,48.2557981 C2.91052738,48.2220558 2.8248415,48.1534078 2.8248415,48.0511629 C2.85879251,47.9832421 2.96226225,47.9487727 3.13510375,47.9487727 C5.27166571,48.085487 6.92600576,47.6250216 8.09812392,46.5673765 C8.47687608,46.1582517 8.82197118,46.1582517 9.13208646,46.5673765 C9.85578674,47.2157513 10.6653199,47.5906976 11.5618617,47.6930878 C12.4576686,47.7953327 13.2162017,47.6760713 13.8365793,47.3348673 C14.0086859,47.2326225 14.1120086,47.2157513 14.1466945,47.2836722 C14.1806455,47.385917 14.1290576,47.5060511 13.9916369,47.6417473 C13.6815216,47.9832421 13.146683,48.2220558 12.3890317,48.3580429 C11.905928,48.4268364 11.0966888,48.3245915 9.95925648,48.0511629 C9.82110086,48.0175661 9.7177781,47.9999678 9.64899424,47.9999678 C9.02861671,47.7274119 8.33886744,47.7441375 7.58121614,48.0511629 C6.85736888,48.2557981 6.18525648,48.3923669 5.56487896,48.4604332 L5.56487896,50.8648595 L7.58121614,50.8648595 L7.58121614,48.8185083 C7.58121614,48.6825212 7.61502017,48.5971475 7.6845389,48.562678 C7.71848991,48.562678 7.78786167,48.5971475 7.89133141,48.6649229 C8.40838617,48.9719483 8.8904611,48.9550772 9.33887896,48.6138732 C9.40751585,48.5116283 9.4939366,48.4778861 9.59725937,48.5116283 C9.66604323,48.5116283 9.70072911,48.5802764 9.70072911,48.716118 M6.75389914,52.4507454 C5.5470951,53.9854361 3.9275879,54.9408363 1.8943487,55.3156371 C1.79102594,55.3499611 1.7215072,55.3332354 1.6875562,55.264442 C1.6875562,55.2309906 1.73914409,55.17965 1.84261383,55.111002 C2.80720461,54.4970966 3.56559078,53.7808009 4.11733141,52.9622605 C4.46154467,52.5531357 4.63438617,52.1102686 4.63438617,51.6322049 C4.63438617,51.4620392 4.6681902,51.3763746 4.73770893,51.3763746 C4.80634582,51.3427778 4.89291354,51.4106986 4.99623631,51.5810097 C5.40982133,52.0926703 5.9437781,52.2637086 6.5988415,52.0926703 C6.77094813,52.0247494 6.87441787,52.0247494 6.90910375,52.0926703 C6.94290778,52.1950605 6.89131988,52.3149037 6.75389914,52.4507454" id="Fill-1" fill="#40220F"></path>
                <path d="M23.2145827,51.3763746 L23.2145827,52.2461102 L24.3002801,52.2461102 C24.5408767,52.2461102 24.8342369,52.0080238 25.179185,51.52996 C25.212989,51.4620392 25.2825078,51.4620392 25.3858305,51.52996 C25.5232513,51.6665289 25.7994156,51.871164 26.2130006,52.14372 C26.3504213,52.2461102 26.4537441,52.3149037 26.5232628,52.3485005 C26.6265856,52.3828245 26.6436346,52.4338742 26.5748507,52.5019405 C26.471528,52.53641 26.3504213,52.5531357 26.2130006,52.5531357 L23.2145827,52.5531357 L23.2145827,54.0366312 C23.4213752,54.1390215 23.558649,54.3100598 23.6281677,54.5482917 C23.6621187,54.8896412 23.5764329,55.1621971 23.3696403,55.3668322 C22.9900063,55.6050642 22.4730986,55.6562593 21.81877,55.5202722 C21.5424588,55.4523514 21.1119718,55.2309906 20.5262801,54.8553171 C20.0431764,54.5482917 19.6813262,54.3267855 19.4405827,54.1902166 C19.3372599,54.1566198 19.3024271,54.1054247 19.3372599,54.0366312 C19.3372599,54.0031798 19.3889948,54.0031798 19.4923176,54.0366312 C19.8365308,54.1733455 20.2501159,54.3611095 20.7330726,54.5994869 C21.1806086,54.838446 21.5085078,54.991886 21.7153003,55.0598068 C22.4043147,55.264442 22.8527326,55.1966666 23.0595251,54.8553171 C23.128162,54.7193301 23.128162,54.5994869 23.0595251,54.4970966 C23.0246922,54.5314206 22.9560553,54.5482917 22.8527326,54.5482917 L21.5085078,54.5482917 C21.3017153,54.5146949 21.1983925,54.3948518 21.1983925,54.1902166 L21.1983925,52.5531357 L18.9754098,52.5531357 C18.5271389,52.5531357 18.2168767,52.3995502 18.04477,52.0926703 C18.0100841,51.9904254 18.04477,51.9566832 18.1482398,51.9904254 C18.3550323,52.1613183 18.6473637,52.2461102 19.0269977,52.2461102 L21.1983925,52.2461102 L21.1983925,51.3763746 C21.1983925,51.0694947 21.3187643,50.933653 21.5602427,50.9672498 L22.5424703,50.9672498 C22.7832138,50.933653 22.9560553,50.8648595 23.0595251,50.7624692 C23.5764329,50.5578341 23.7485395,50.2685525 23.5764329,49.8928791 C23.3349545,49.5522568 22.9044674,49.569128 22.2840899,49.9439288 C21.4569199,50.4899133 20.7670236,50.7457436 20.2161648,50.7114195 C19.6644242,50.6778227 19.3372599,50.3533444 19.2339372,49.7392936 C19.1991043,49.6035974 19.1991043,49.534804 19.2339372,49.534804 C19.3024271,49.5010617 19.371211,49.5179328 19.4405827,49.5858537 C19.9915885,50.1318382 20.6637009,50.199759 21.4569199,49.7906342 C22.2840899,49.3477672 23.0077902,49.1086626 23.6281677,49.0743386 C24.6274444,49.0405963 25.1614012,49.3477672 25.2307729,49.9951239 C25.196087,50.5067844 24.8342369,50.8648595 24.1452225,51.0694947 C23.8689112,51.1038187 23.541747,51.1551592 23.1628478,51.2229346 C23.1967988,51.2574041 23.2145827,51.3084538 23.2145827,51.3763746 M19.9059026,46.5163268 C19.8025798,47.0623114 19.6295914,47.5906976 19.3889948,48.1022126 L23.8866951,48.1022126 C24.0588017,48.1366821 24.368917,47.8975775 24.8171879,47.385917 C24.8511389,47.2836722 24.9375597,47.2836722 25.0757153,47.385917 C25.5579372,47.6930878 26.0062081,47.966371 26.4199401,48.2046029 L26.5232628,48.3069932 L26.4199401,48.3580429 C26.3164703,48.4268364 26.1614127,48.4604332 25.9546202,48.4604332 L19.2339372,48.4604332 C18.8888421,49.2109074 18.4066202,49.9104774 17.7862427,50.5578341 L17.7862427,55.1621971 C17.8201937,55.4011562 17.6998219,55.5369979 17.4243925,55.5714674 L16.1836375,55.5714674 C15.9421591,55.5369979 15.8217873,55.4011562 15.8217873,55.1621971 L15.8217873,52.3485005 C15.2014098,52.7920948 14.5292974,53.201365 13.8055971,53.5763113 C13.7021274,53.6106353 13.6327556,53.6106353 13.5988046,53.5763113 C13.5988046,53.508245 13.6327556,53.4403242 13.7021274,53.3716761 C15.4252513,51.8033886 16.5794386,50.1663076 17.1658651,48.4604332 L15.2531447,48.4604332 C14.6326202,48.4949027 14.2529862,48.3580429 14.1157124,48.0511629 C14.0463406,47.8808518 14.0810265,47.8463824 14.2190352,47.9489181 C14.4259746,48.0511629 14.8217758,48.1022126 15.4082023,48.1022126 L17.3209228,48.1022126 C17.4583435,47.5571008 17.4761274,47.0279873 17.3728046,46.5163268 C17.3379718,46.3803397 17.3548738,46.294966 17.4243925,46.2604965 C17.4930294,46.2270452 17.5794501,46.2604965 17.6829199,46.3628868 C18.3719343,46.8408051 18.9754098,46.8408051 19.4923176,46.3628868 C19.6295914,46.2604965 19.7330611,46.2094468 19.8025798,46.2094468 C19.9059026,46.2437709 19.9398536,46.3460157 19.9059026,46.5163268" id="Fill-3" fill="#40220F"></path>
                <path d="M38.5380692,51.0694365 C38.5033833,51.0694365 38.4685504,51.0870348 38.4344524,51.1206316 C38.3649337,51.1551011 38.2793948,51.1718268 38.176072,51.1718268 L35.4877695,51.1718268 L35.4877695,53.9343282 L35.4877695,54.036573 C35.7286599,54.1389633 35.8497666,54.3100016 35.8497666,54.5482336 C35.9530893,54.855259 35.8666686,55.1285421 35.5910922,55.3667741 C35.314928,55.5714092 34.815804,55.6226043 34.0918098,55.5203595 C33.7470086,55.4179692 33.2647867,55.1285421 32.6444092,54.6506238 C32.2646282,54.3437439 31.9721499,54.1222376 31.7655043,53.9855233 C31.6621816,53.9176025 31.6104467,53.8664074 31.6104467,53.8320834 C31.6443977,53.7984865 31.7137695,53.7984865 31.8170922,53.8320834 C32.0579827,53.9343282 32.3858818,54.1222376 32.7994669,54.3947936 C33.3503256,54.770467 33.7640576,54.9919733 34.0400749,55.0598941 C34.6604524,55.2645292 35.0741844,55.1966084 35.2811239,54.855259 C35.3497608,54.6506238 35.3497608,54.4970384 35.2811239,54.3947936 L35.1257723,54.3947936 L33.8334294,54.3947936 C33.5572651,54.3947936 33.4198444,54.2413536 33.4198444,53.9343282 L33.4198444,51.1718268 L31.920562,51.1718268 C31.4376052,51.1718268 31.0935389,51.0359851 30.8864524,50.7625565 C30.7137579,51.581097 30.3695447,52.3317167 29.8527839,53.0135429 C30.2662219,53.1502572 30.6798069,53.099062 31.0935389,52.8601029 C31.2306657,52.7577126 31.3170865,52.7241158 31.3517723,52.7577126 C31.3857233,52.7921821 31.3857233,52.8944269 31.3517723,53.064738 C31.2137637,53.6784979 30.9722853,54.2589519 30.628219,54.8040638 C30.0078415,55.4179692 29.4907867,55.3500484 29.0772017,54.5994287 C28.973879,54.3947936 28.8874582,54.2413536 28.8188213,54.1389633 C27.9221326,54.8897284 26.871121,55.3500484 25.6651988,55.5203595 L25.4582594,55.5203595 C25.4235735,55.4524387 25.4582594,55.4010981 25.5617291,55.3667741 C26.7677983,54.855259 27.698438,54.1053665 28.3535014,53.1157877 C28.2839827,52.9454766 28.1806599,52.7065175 28.0432392,52.3996375 C27.8017608,51.922301 27.6465562,51.5642259 27.5779193,51.3252667 C27.1644813,51.8033305 26.7508963,52.2294718 26.3371643,52.6042726 C26.1990086,52.7065175 26.0956859,52.7577126 26.027049,52.7577126 C25.9923631,52.7241158 26.027049,52.6385966 26.1303718,52.5020278 C26.7160634,51.615421 27.0777666,50.4044814 27.2162161,48.8696453 L26.8024841,48.8696453 C26.1821066,48.8696453 25.7854236,48.6993342 25.613464,48.3579847 C25.5099942,48.1876736 25.5439452,48.1533496 25.7167867,48.2557399 C26.027049,48.460375 26.4227032,48.5627653 26.9058069,48.5627653 L27.2162161,48.5627653 C27.284853,47.9488599 27.3195389,47.2837594 27.3195389,46.5674638 C27.3195389,46.4316221 27.3533429,46.3459575 27.4228617,46.3116335 C27.4914986,46.2781821 27.5779193,46.3292318 27.6812421,46.4652189 C28.1287781,46.7720989 28.594098,46.7386475 29.0772017,46.3629741 C29.2143285,46.226987 29.3180922,46.1759373 29.387464,46.2093887 C29.4561009,46.2781821 29.4730029,46.3972981 29.4391988,46.5674638 C29.404366,46.9432826 29.3010432,47.4883945 29.1287896,48.2046902 C29.0941037,48.3757285 29.0594179,48.4948445 29.0254669,48.5627653 L29.5941095,48.5627653 C29.835,48.5970893 30.0933804,48.3924542 30.3695447,47.9488599 C30.4384755,47.8464697 30.5248963,47.8464697 30.628219,47.9488599 C31.1451268,48.2557399 31.5410749,48.4779733 31.8170922,48.613815 L31.920562,48.6650101 C31.920562,48.6993342 31.8857291,48.7336582 31.8170922,48.7674004 C31.7137695,48.8361939 31.5410749,48.8696453 31.3001844,48.8696453 L28.8705562,48.8696453 C28.594098,49.6547344 28.2501787,50.3532863 27.8364467,50.9671916 C28.146562,51.3763164 28.4568242,51.7521353 28.7669395,52.0926121 C28.9390461,51.615421 29.0772017,50.7968805 29.1805245,49.6369906 C29.1805245,49.501149 29.2143285,49.4323555 29.2838473,49.4323555 C29.3527781,49.4323555 29.421415,49.4835506 29.4907867,49.5859409 C29.9731556,49.8593695 30.3695447,49.8417712 30.6798069,49.5347458 C30.8170807,49.3989041 30.9206974,49.347709 30.9902161,49.3813058 C31.0935389,49.4156298 31.1273429,49.501149 31.0935389,49.6369906 C31.0587061,49.944016 31.0071182,50.250896 30.9384813,50.5577759 C31.2137637,50.7289597 31.5757608,50.8136062 32.0241787,50.8136062 L33.4198444,50.8136062 L33.4198444,49.5859409 C33.1097291,49.5859409 32.8163689,49.5692152 32.5407925,49.5347458 C32.368098,49.501149 32.2646282,49.4666795 32.2308242,49.4323555 C32.2308242,49.3644347 32.3163631,49.3301107 32.4892046,49.3301107 C33.9020663,49.2965138 34.9708617,49.0062141 35.694415,48.460375 C36.108147,48.1876736 36.2283718,47.8464697 36.0564121,47.4371994 C35.8497666,47.1646435 35.5395043,47.0791243 35.1257723,47.1815146 C34.7811182,47.3180834 34.2293775,47.6082377 33.4714323,48.0511048 C32.9545245,48.3245334 32.4892046,48.3579847 32.0757666,48.1533496 C31.6273487,47.9152631 31.3688213,47.4203283 31.3001844,46.6698541 C31.2654986,46.533867 31.2824006,46.4483478 31.3517723,46.4140238 C31.4204092,46.4140238 31.5240259,46.4828173 31.6621816,46.6186589 C32.0757666,47.0279292 32.6783602,47.2501626 33.4714323,47.2837594 C34.0571239,47.2501626 34.6604524,47.0279292 35.2811239,46.6186589 C36.141951,46.1071438 36.8142104,46.0734016 37.2971671,46.5162686 C37.9516427,47.2325643 37.8309769,47.9663128 36.935464,48.7160598 C36.521732,49.0232307 36.0386282,49.2453187 35.4877695,49.3813058 L35.4877695,50.8136062 L35.7980317,50.8136062 C36.0733141,50.8136062 36.4006254,50.5577759 36.7801124,50.0462609 C36.8490432,49.944016 36.935464,49.944016 37.0387867,50.0462609 C37.4863228,50.3196895 37.9863285,50.6091165 38.5380692,50.9159965 C38.6067061,50.9504659 38.6067061,51.0015156 38.5380692,51.0694365" id="Fill-5" fill="#40220F"></path>
                <path d="M42.2808813,46.4651898 C42.7284173,46.5339833 43.1080513,46.4995139 43.4183135,46.362945 C43.9006824,46.0902436 44.2794346,46.1414388 44.5557458,46.516385 C44.8996651,46.9599792 44.8311752,47.3525238 44.3488063,47.6930006 C44.1420138,47.8640389 43.8658496,47.9833003 43.5216363,48.0510757 L46.9337862,48.0510757 C47.2092156,48.0510757 47.5363798,47.7785197 47.9160138,47.2325352 C47.9847977,47.1302904 48.0881205,47.1302904 48.2261291,47.2325352 C48.3982357,47.3013287 48.6567631,47.4373158 49.0017112,47.6418054 C49.3806104,47.8464406 49.6391378,48.000026 49.7771464,48.1022708 L49.8806161,48.1533205 C49.8806161,48.18779 49.8459303,48.222114 49.7771464,48.2557108 C49.6738236,48.3581011 49.5008352,48.4091508 49.2600916,48.4091508 L44.4005412,48.4091508 L44.4521291,48.4604914 C44.4862271,48.4948154 44.520913,48.5291394 44.5557458,48.5627362 C45.0379677,49.3812767 45.6930311,50.2853364 46.5202012,51.2740425 C46.5541522,51.2405911 46.588985,51.189396 46.6236709,51.1206025 C46.6574749,51.0870057 46.6752588,51.0526817 46.6752588,51.0183577 C46.8821983,50.4387763 46.985521,49.8250164 46.985521,49.1766416 C46.985521,49.0063305 47.0193251,48.9208113 47.0888438,48.9208113 C47.1576277,48.9208113 47.2609504,48.9894593 47.3989591,49.1254464 C47.881328,49.671431 48.5017055,49.8760661 49.2600916,49.7393518 C49.4670311,49.705755 49.6043049,49.705755 49.6738236,49.7393518 C49.7076277,49.7736758 49.6907256,49.8593404 49.6220888,49.9950366 C49.138985,50.9504369 48.5365383,51.785703 47.8126911,52.5019987 C47.9847977,52.6042435 48.1228063,52.7064884 48.2261291,52.8088787 C48.7431839,53.1157586 49.3635614,53.0990329 50.0872617,52.757829 C50.2942012,52.6552932 50.4145729,52.6385675 50.4492588,52.7064884 C50.5178957,52.7752818 50.5178957,52.9111235 50.4492588,53.1157586 C50.0696248,54.0366894 49.535521,54.7361139 48.8466536,55.213305 C47.8464951,55.6225752 47.0193251,55.3332936 46.3651435,54.3437148 C46.3304576,54.2756485 46.2785758,54.1734037 46.2099389,54.0366894 C46.175253,53.9342991 46.1405671,53.8665237 46.1066161,53.8320543 C44.5557458,54.8553753 42.6766824,55.4355384 40.4716305,55.5713801 C40.2986421,55.5713801 40.1953193,55.5537818 40.1613683,55.5203304 L40.3680138,55.4691353 C42.5733597,55.059865 44.3141205,54.156678 45.5897084,52.757829 C45.0726536,51.5298728 44.6242357,50.1829461 44.2454836,48.7161762 C44.2107977,48.5460105 44.1938957,48.4434748 44.1938957,48.4091508 L41.7639735,48.4091508 L41.7639735,48.4604914 C42.0742357,49.0742513 42.6946133,49.2790319 43.6251061,49.0742513 C43.7970657,49.0406545 43.9175844,49.0406545 43.9869562,49.0742513 C44.0209072,49.1430448 43.9869562,49.2452896 43.8834865,49.3812767 C43.4353625,49.8927918 42.9183078,50.3708555 42.3327631,50.8135771 L42.3327631,54.0366894 C42.814985,53.3548632 43.4353625,52.6385675 44.1938957,51.8879479 C44.3658553,51.7177822 44.504011,51.6497159 44.6073337,51.6834582 C44.6759706,51.785703 44.6242357,51.9222719 44.4521291,52.092583 C43.8658496,52.673037 43.2632559,53.3715889 42.6428784,54.1901294 C42.1597746,54.7704379 41.6089159,55.059865 40.9885383,55.059865 C40.1953193,55.059865 39.5578928,54.5314788 39.0756709,53.4738337 C38.9722012,53.3038135 38.9722012,53.2012778 39.0756709,53.1669538 C39.1791406,53.1669538 39.2824634,53.2524729 39.3859331,53.422784 C39.6613625,53.8320543 39.9198899,54.156678 40.1613683,54.3947645 L40.1613683,52.092583 C39.3681493,52.5019987 38.5756651,52.8088787 37.783181,53.0135138 C37.5763885,53.0479832 37.4552818,53.0479832 37.4213308,53.0135138 C37.4213308,52.979917 37.5070167,52.9111235 37.6797112,52.8088787 C38.8510945,51.9903382 39.9028409,51.0183577 40.8333337,49.8927918 C41.177547,49.4499247 41.3503885,48.9894593 41.3503885,48.5115411 L41.3503885,48.4091508 L39.2307285,48.4091508 C38.6789879,48.4091508 38.2655499,48.222114 37.9899735,47.8464406 C37.9204548,47.6761295 37.9382386,47.6418054 38.0417084,47.7441957 C38.3857746,47.9488308 38.8172905,48.0510757 39.3340513,48.0510757 L43.0563164,48.0510757 L43.0563164,47.9488308 C43.1251003,47.7105989 43.1420023,47.5226895 43.1080513,47.3859752 C43.0385326,47.1477432 42.7284173,46.9089295 42.1775585,46.669825 C42.0742357,46.6362282 42.0394029,46.585033 42.0742357,46.516385 C42.1080398,46.4484642 42.1775585,46.4317385 42.2808813,46.4651898" id="Fill-7" fill="#40220F"></path>
                <path d="M4.89780778,58.4183099 L4.74818818,59.3913084 L1.73389712,59.3913084 L1.73389712,59.2221609 C2.10441873,59.236414 2.27534957,59.1094443 2.24698357,58.841397 L2.24698357,57.2124607 C2.27534957,56.9163433 2.11147349,56.7823924 1.75535533,56.8104625 L1.75535533,56.6413149 L3.52962622,56.6413149 L3.52962622,56.8104625 C3.20158012,56.7967911 3.04505274,56.9304511 3.05930922,57.2124607 L3.05930922,59.2221609 L3.48685677,59.2221609 C3.99994323,59.2221609 4.38472133,58.9333155 4.64133804,58.3547523 L4.89780778,58.4183099 Z" id="Fill-9" fill="#40220F"></path>
                <path d="M6.69787262,58.8202645 L6.69787262,57.2124171 C6.72623862,56.9162997 6.56221556,56.7823488 6.20609741,56.8105643 L6.20609741,56.6412713 L9.24184669,56.6412713 L9.37000807,57.4452677 L9.11353833,57.5085344 C8.97082651,57.0432695 8.65733084,56.8176909 8.17290432,56.8316532 L7.48874006,56.8316532 L7.48874006,57.8682094 L7.98051527,57.8682094 C8.33648646,57.8682094 8.53637118,57.741385 8.57899366,57.4874455 L8.81415216,57.4874455 L8.81415216,58.4605895 L8.57899366,58.4605895 C8.53637118,58.1928331 8.33648646,58.0587367 7.98051527,58.0587367 L7.48874006,58.0587367 L7.48874006,59.2010283 L8.17290432,59.2010283 C8.65733084,59.2152815 8.99228473,58.9545063 9.17761902,58.4182662 L9.41277752,58.4818239 L9.30592738,59.3914102 L6.20609741,59.3914102 L6.20609741,59.2222627 C6.54810605,59.2363704 6.71183516,59.1024195 6.69787262,58.8202645" id="Fill-11" fill="#40220F"></path>
                <path d="M14.398079,56.6625202 L14.5049291,57.5931955 L14.2484594,57.677842 C13.9918427,57.071645 13.5997159,56.7682556 13.0726669,56.7682556 C12.3314767,56.7682556 11.961102,57.1701084 11.961102,57.9741048 C11.961102,58.8063167 12.3671914,59.2222772 13.179517,59.2222772 C13.6926035,59.2222772 14.0914911,59.0106609 14.3767677,58.5874284 L14.6332375,58.6720749 C14.3339983,59.1940617 13.7994536,59.454837 13.0298974,59.454837 C11.7472548,59.4410201 11.0985112,58.9756097 11.0845487,58.0587513 C11.1129147,57.0856073 11.7612173,56.5921268 13.0298974,56.5778737 C13.2437447,56.5778737 13.5215256,56.6062346 13.8636813,56.6625202 C13.9490732,56.6908811 14.0346121,56.7048434 14.120151,56.7048434 C14.1629205,56.7048434 14.2411107,56.6978623 14.3553095,56.6837545 C14.2838801,56.6978623 14.2981366,56.6908811 14.398079,56.6625202" id="Fill-13" fill="#40220F"></path>
                <g id="Group-17" transform="translate(16.020173, 56.546051)">
                    <mask id="mask-2" fill="white">
                        <use xlink:href="#path-1"></use>
                    </mask>
                    <g id="Clip-16"></g>
                    <path d="M2.78598156,0.0952927736 L4.2182438,0.0952927736 L4.2182438,0.264440356 C3.80480576,0.20830023 3.61961844,0.412644471 3.6623879,0.878054843 L3.6623879,1.74531798 C3.6623879,2.5068457 3.14944841,2.8948816 2.1232755,2.90884391 C1.06844265,2.90884391 0.54139366,2.5775299 0.54139366,1.91461101 L0.54139366,0.687527472 C0.555356196,0.391410123 0.391627089,0.250623485 0.0496184438,0.264440356 L0.0496184438,0.0952927736 L1.8025781,0.0952927736 L1.8025781,0.264440356 C1.46056945,0.250623485 1.30360115,0.391410123 1.3322611,0.687527472 L1.3322611,1.82996449 C1.3322611,2.39427457 1.67441671,2.67613873 2.35843401,2.67613873 C3.02819481,2.67613873 3.37020346,2.36605907 3.38445994,1.74531798 L3.38445994,0.878054843 C3.4413389,0.412644471 3.2418951,0.20830023 2.78598156,0.264440356 L2.78598156,0.0952927736 Z" id="Fill-15" fill="#40220F" mask="url(#mask-2)"></path>
                </g>
                <path d="M24.3900225,56.641344 L25.8222847,56.641344 L25.8222847,56.8104916 C25.4088467,56.7681683 25.2236594,56.9447334 25.2664288,57.3394596 L25.2664288,59.4125719 L24.6679504,59.4125719 L22.4874432,57.1701665 L22.4874432,58.693222 C22.4446738,59.0741313 22.6441176,59.2506963 23.0859216,59.2221899 L23.0859216,59.3913375 L21.6536594,59.3913375 L21.6536594,59.2221899 C22.0668035,59.2645132 22.2522847,59.088239 22.2095153,58.693222 L22.2095153,57.254813 C22.2378813,56.9304802 22.0597487,56.7824215 21.6749706,56.8104916 L21.6749706,56.641344 L22.8722213,56.641344 L24.9885009,58.6721331 L24.9885009,57.3394596 C25.0312703,56.9447334 24.8315326,56.7681683 24.3900225,56.8104916 L24.3900225,56.641344 Z" id="Fill-18" fill="#40220F"></path>
                <path d="M29.6959478,59.3913666 L29.6959478,59.222219 C30.052066,59.25058 30.216089,59.1163382 30.1877231,58.8202208 L30.1877231,58.0374588 L28.5414666,58.0374588 L28.5414666,58.8414552 C28.5414666,59.0952493 28.7051957,59.222219 29.0332418,59.222219 L29.0332418,59.3913666 L27.2375127,59.3913666 L27.2375127,59.222219 C27.5934839,59.2364722 27.7645617,59.1095025 27.7505991,58.8414552 L27.7505991,57.2125189 C27.7933686,56.9162561 27.6291986,56.7824506 27.2589709,56.8105207 L27.2589709,56.6413731 L29.0119305,56.6413731 L29.0119305,56.8105207 C28.6697749,56.7824506 28.5128066,56.9162561 28.5414666,57.2125189 L28.5414666,57.8470768 L30.1877231,57.8470768 L30.1877231,57.2125189 C30.216089,56.9305093 30.0594147,56.7967038 29.7172591,56.8105207 L29.7172591,56.6413731 L31.4702187,56.6413731 L31.4702187,56.8105207 C31.1138066,56.7824506 30.9497836,56.9162561 30.9785905,57.2125189 L30.9785905,58.8202208 C30.964334,59.1025213 31.1352648,59.2364722 31.4916769,59.222219 L31.4916769,59.3913666 L29.6959478,59.3913666 Z" id="Fill-20" fill="#40220F"></path>
                <path d="M34.1466458,58.2913401 L35.2368994,58.2913401 L34.7239599,57.2758729 L34.1466458,58.2913401 Z M35.1300493,59.3913084 L35.1300493,59.2221609 C35.4720579,59.2221609 35.635787,59.1728564 35.6216775,59.0741022 C35.6216775,59.0317789 35.5930176,58.9613856 35.5362856,58.8626313 L35.3437496,58.5029564 L34.0184844,58.5029564 L33.7618677,58.9472779 C33.7618677,58.9613856 33.754519,58.98262 33.7404095,59.0105446 C33.726153,59.0247978 33.7190983,59.0458867 33.7190983,59.0741022 C33.7046948,59.1728564 33.8828274,59.2221609 34.253496,59.2221609 L34.253496,59.3913084 L32.7999225,59.3913084 L32.7999225,59.2221609 C33.1419311,59.2221609 33.3482827,59.1517675 33.4198591,59.0105446 L34.7667294,56.6413149 L35.1942769,56.5989916 L36.4554614,58.9682213 C36.5410003,59.1517675 36.7333893,59.236414 37.0327755,59.2221609 L37.0327755,59.3913084 L35.1300493,59.3913084 Z" id="Fill-22" fill="#40220F"></path>
                <g id="Group-26" transform="translate(38.360231, 56.546051)">
                    <mask id="mask-4" fill="white">
                        <use xlink:href="#path-3"></use>
                    </mask>
                    <g id="Clip-25"></g>
                    <path d="M2.05447695,0.222131644 C1.3560562,0.194207022 1.01404755,0.617148697 1.02845101,1.49153843 C1.01404755,2.32375035 1.3560562,2.73272972 2.05447695,2.71847653 C2.73849424,2.73272972 3.08064986,2.3096426 3.08064986,1.44921518 C3.08064986,0.63140189 2.73849424,0.222131644 2.05447695,0.222131644 M2.05447695,0.0317497138 C3.30831268,0.0460029064 3.94985447,0.518394434 3.97851441,1.44921518 C3.94985447,2.40839687 3.30831268,2.89489615 2.05447695,2.90885846 C0.78579683,2.89489615 0.144548991,2.42963121 0.130439481,1.51262734 C0.15895245,0.539628782 0.800200288,0.0460029064 2.05447695,0.0317497138" id="Fill-24" fill="#40220F" mask="url(#mask-4)"></path>
                </g>
                <path d="M44.7800135,59.3913666 L44.7800135,59.222219 C45.1789012,59.2364722 45.3643824,59.1095025 45.3358695,58.8414552 L45.3358695,58.249075 L44.352466,57.106638 C44.1815352,56.9094204 43.9816504,56.8105207 43.7539876,56.8105207 L43.7539876,56.6413731 L45.571028,56.6413731 L45.571028,56.8105207 C45.3001548,56.8105207 45.1647916,56.8458628 45.1647916,56.9162561 C45.1647916,56.9728325 45.2002124,57.0432258 45.2717888,57.1278724 L45.9772643,57.9317233 L46.6398233,57.1912845 C46.7394718,57.0928211 46.7895899,57.0151558 46.7895899,56.9585793 C46.7895899,56.860116 46.6398233,56.8105207 46.3405841,56.8105207 L46.3405841,56.6413731 L47.8156159,56.6413731 L47.8156159,56.8105207 C47.4877167,56.8105207 47.1884775,56.9585793 46.9177513,57.2548421 L46.1483421,58.1221053 L46.1483421,58.8414552 C46.1193882,59.1236102 46.2978147,59.25058 46.6825928,59.222219 L46.6825928,59.3913666 L44.7800135,59.3913666 Z" id="Fill-27" fill="#40220F"></path>
                <path d="M49.1453196,56.641344 L50.9195905,56.641344 L50.9195905,56.8104916 C50.5775818,56.7824215 50.4206135,56.9163724 50.4492735,57.2124898 L50.4492735,58.8414261 C50.43487,59.1094734 50.5990401,59.2364431 50.9410487,59.2221899 L50.9410487,59.3913375 L49.1025501,59.3913375 L49.1025501,59.2221899 C49.4873282,59.2506963 49.6653138,59.1235811 49.6369478,58.8414261 L49.6369478,57.2124898 C49.6653138,56.9304802 49.5012908,56.7966747 49.1453196,56.8104916 L49.1453196,56.641344 Z" id="Fill-29" fill="#40220F"></path>
                <path d="M23.2609383,7.12010966 C23.2609383,7.12010966 22.4133389,7.60777247 22.4133389,8.34908393 C22.4133389,9.09039538 24.2071573,9.59754725 24.5422582,7.15908778 C24.8773591,4.72077375 24.6408778,5.81762961e-05 27.6569326,5.81762961e-05 C30.6728403,5.81762961e-05 29.450751,4.7012847 31.8950767,5.69609937 C34.3394023,6.69091404 34.4380219,4.23311095 33.2356271,4.07705303 C32.0330853,3.92099512 32.7229816,5.22792562 32.7229816,5.22792562 C32.7229816,5.22792562 31.9936963,4.87683167 31.9936963,4.17449833 C31.9936963,3.47231043 32.7625176,3.1601946 33.2157856,3.1601946 C33.6692006,3.1601946 34.6745032,3.37471969 34.6745032,5.2863928 C34.6745032,7.1980659 32.0921689,12.4455678 24.2860824,10.806887 C24.2860824,10.806887 21.8416098,10.1631663 21.8416098,8.34908393 C21.8416098,8.34908393 22.078238,7.23718946 23.2609383,7.12010966" id="Fill-31" fill="#40220F"></path>
                <g id="Group-35" transform="translate(0.000000, 6.368995)">
                    <mask id="mask-6" fill="white">
                        <use xlink:href="#path-5"></use>
                    </mask>
                    <g id="Clip-34"></g>
                    <path d="M27.1246219,3.91125059 C27.1246219,3.91125059 27.3414086,5.35474995 26.4544202,5.90102537 C25.5672847,6.44715535 24.6210657,7.09087607 23.7537718,6.68131495 C22.8863308,6.27160838 21.7036305,6.73978212 21.3291406,7.71510773 C20.9545037,8.69043335 23.2412732,12.5918812 24.8379994,14.7961811 C26.4347256,17.000481 25.2124893,18.3855132 23.1820427,17.8978503 C21.151596,17.4100421 8.67349798,8.05965685 -2.93948124e-05,20.5442901 C-2.93948124e-05,20.5442901 4.20533948,20.0240485 6.99137983,25.9542493 C9.77742017,31.8843047 18.2407746,43.2243193 29.7003424,37.8664278 C29.7003424,37.8664278 19.2396104,41.5076822 14.0354058,32.6125265 C8.83120115,23.7173707 7.72727896,22.1567916 7.72727896,22.1567916 C7.72727896,22.1567916 8.98890432,16.954958 17.1894692,19.0356333 C25.389887,21.116454 32.801789,18.4634694 32.9596392,7.69561868 C32.9596392,7.69561868 32.3025182,5.90102537 30.3837718,6.9153291 C28.4650254,7.92963283 26.3887228,2.36361566 29.3324663,0.438998333 C32.2762098,-1.485619 27.1246219,3.91125059 27.1246219,3.91125059" id="Fill-33" fill="#40220F" mask="url(#mask-6)"></path>
                </g>
                <path d="M30.515196,23.1158569 C30.515196,23.1158569 30.0420865,23.6619869 30.8306023,24.9104502 C31.6191182,26.1589135 38.7156138,34.976113 35.3250692,41.2182842 C35.3250692,41.2182842 25.2716023,45.9000217 20.6983573,42.9349213 C16.1249654,39.9699663 13.9565101,31.386781 10.5265764,29.6702894 C10.5265764,29.6702894 11.6698876,25.9638775 19.0424006,26.8222688 C26.4149135,27.6805146 30.515196,23.1158569 30.515196,23.1158569" id="Fill-36" fill="#40220F"></path>
                <path d="M33.8833859,10.6279367 C38.1760573,13.1815853 41.0549853,17.8346709 41.0549853,23.1418035 C41.0549853,26.7346262 39.7333945,30.0260956 37.5493599,32.5713086 C37.7258758,32.9945411 37.889017,33.4442439 38.0289363,33.9156173 C40.6866683,31.0866495 42.3166107,27.2999543 42.3166107,23.1418035 C42.3166107,17.3993668 39.2122245,12.3614449 34.5773974,9.58352676 C34.3445905,9.99512406 34.109138,10.3406913 33.8833859,10.6279367" id="Fill-38" fill="#40220F"></path>
                <path d="M12.7351556,17.4463296 C14.262951,13.8939395 17.17583,11.0626446 20.7977118,9.61230948 C20.5848934,9.24652602 20.4329222,8.84816383 20.3256311,8.45489207 C16.297513,10.0681208 13.0806916,13.2567636 11.4576571,17.246494 C11.8461095,17.2925987 12.2767435,17.3571744 12.7351556,17.4463296" id="Fill-40" fill="#40220F"></path>
            </g>
        </g>
    </g>
</svg>