<?xml version="1.0" encoding="UTF-8"?>
<svg width="61px" height="96px" viewBox="0 0 61 96" version="1.1" xmlns="http://www.w3.org/2000/svg" xmlns:xlink="http://www.w3.org/1999/xlink">
    <!-- Generator: Sketch 40.2 (33826) - http://www.bohemiancoding.com/sketch -->
    <title>Group 5</title>
    <desc>Created with Sketch.</desc>
    <defs>
        <path d="M0.878398279,45.6636254 C0.606851168,44.5938151 0.629720003,42.8705863 0.933058167,41.8020723 L12.0054182,2.7994902 C12.3071531,1.73662361 13.4379642,0.875 14.5593623,0.875 L47.884973,0.875 C48.9937425,0.875 50.11789,1.75039423 50.391521,2.81351889 L60.4229317,41.7880436 C60.6984905,42.858658 60.7350686,44.6114696 60.509643,45.6793173 L50.3048101,94.0199014 C50.0771407,95.0983781 49.0029019,95.9726563 47.8916735,95.9726563 L31.7919203,95.9726563 C30.6868512,95.9726563 29.6307651,95.0852493 29.435095,94.001702 L24.5922488,67.1838449 C24.3956792,66.0953169 24.1321991,66.1002976 24.002288,67.2074241 L20.8609933,93.9781227 C20.7317365,95.0796732 19.728891,95.9726563 18.6271244,95.9726563 L15.6480351,95.9726563 C14.5435601,95.9726563 13.4290928,95.109418 13.1565268,94.0355934 L0.878398279,45.6636254 Z" id="path-1"></path>
        <mask id="mask-2" maskContentUnits="userSpaceOnUse" maskUnits="objectBoundingBox" x="0" y="0" width="59.967829" height="95.0976562" fill="white">
            <use xlink:href="#path-1"></use>
        </mask>
    </defs>
    <g id="Page-1" stroke="none" stroke-width="1" fill="none" fill-rule="evenodd">
        <g id="预约入库" transform="translate(-655.000000, -405.000000)" stroke="#FFA35E">
            <g id="Group-6" transform="translate(26.000000, 380.000000)">
                <g id="Group-5" transform="translate(629.000000, 25.000000)">
                    <g id="Group-3">
                        <use id="Combined-Shape" mask="url(#mask-2)" stroke-width="4" stroke-linejoin="round" xlink:href="#path-1"></use>
                        <path d="M12.3222656,6.8 L50.0125068,6.8" id="Path-1389" stroke-width="1.6"></path>
                    </g>
                </g>
            </g>
        </g>
    </g>
</svg>