<?xml version="1.0" encoding="UTF-8"?>
<svg width="62px" height="62px" viewBox="0 0 62 62" version="1.1" xmlns="http://www.w3.org/2000/svg" xmlns:xlink="http://www.w3.org/1999/xlink">
    <!-- Generator: Sketch 40.2 (33826) - http://www.bohemiancoding.com/sketch -->
    <title>Group 3</title>
    <desc>Created with Sketch.</desc>
    <defs></defs>
    <g id="Page-1" stroke="none" stroke-width="1" fill="none" fill-rule="evenodd">
        <g id="配送－订单" transform="translate(-128.000000, -595.000000)" stroke="#FFA35E">
            <g id="Group-9" transform="translate(50.000000, 140.000000)">
                <g id="Group-6" transform="translate(0.000000, 434.000000)">
                    <g id="Group-3" transform="translate(79.000000, 22.000000)">
                        <g id="Group-5" transform="translate(0.000000, 15.217391)">
                            <path d="M0.402147032,20.4712978 C3.12738871,21.5917971 9.70634818,23.143682 16.5251237,23.143682 C32.2535409,23.143682 34.469354,15.7519531 59.6950172,16.3459579" id="Path-1693" opacity="0.3"></path>
                            <path d="M0.552149581,20.8542237 C4.72892351,22.060079 9.6528315,22.9161005 15.2151361,22.9161005 C34.0281197,22.9161005 36.4322448,7.44862439 58.9946324,9.81275476" id="Path-1693" opacity="0.6"></path>
                            <path d="M0.815695195,22.6826158 C2.26765185,23.1080574 3.19787442,23.2974667 5.41549573,23.3508832 C19.1559407,23.6818529 20.345942,0.408882473 34.4602911,0.408882473 C46.6266465,0.408882473 48.2179685,17.2270204 58.7164173,21.93232" id="Path-1693"></path>
                        </g>
                        <ellipse id="Oval-558" cx="29.7841727" cy="30" rx="29.7841727" ry="30"></ellipse>
                    </g>
                </g>
            </g>
        </g>
    </g>
</svg>