<?xml version="1.0" encoding="UTF-8"?>
<svg width="113px" height="94px" viewBox="0 0 113 94" version="1.1" xmlns="http://www.w3.org/2000/svg" xmlns:xlink="http://www.w3.org/1999/xlink">
    <!-- Generator: Sketch 40.2 (33826) - http://www.bohemiancoding.com/sketch -->
    <title>Group 2</title>
    <desc>Created with Sketch.</desc>
    <defs>
        <path d="M40.8126883,0 L29.0998795,0 C28.0006045,0 26.4223987,0.568062929 25.5745246,1.26880406 L1.53521187,21.1365359 C0.697375136,21.8289815 0.559869449,23.103036 1.25050341,23.9636876 L13.1240744,38.7602497 C13.8110773,39.6163764 15.0980798,39.7931217 15.9905646,39.1449148 L26.4937497,31.516508 C27.3906133,30.8651208 28.0724592,31.2365483 28.0264754,32.3390112 L25.5795622,91.0038143 C25.5332455,92.1142585 26.393657,93 27.5006015,93 L88.0956339,93 C89.2112624,93 90.0575657,92.1062772 90.0053015,91.0038143 L87.2241946,32.3390112 C87.171552,31.228567 87.839923,30.8815663 88.7161978,31.5461367 L98.6965625,39.1152861 C99.5760018,39.7822565 100.818587,39.5998143 101.479023,38.7131506 L112.430149,24.0107869 C113.086395,23.1297474 112.975858,21.7854131 112.173899,21.0206942 L91.5816359,1.38464596 C90.7825138,0.622631607 89.2385445,0 88.1394189,0 L77.2229975,0 C77.2229975,8.80220084 69.0722722,15.9377945 59.0178429,15.9377945 C48.9634136,15.9377945 40.8126883,8.80220084 40.8126883,1.29674049e-12 Z" id="path-1"></path>
        <mask id="mask-2" maskContentUnits="userSpaceOnUse" maskUnits="objectBoundingBox" x="0" y="0" width="112.048693" height="93" fill="white">
            <use xlink:href="#path-1"></use>
        </mask>
    </defs>
    <g id="Page-1" stroke="none" stroke-width="1" fill="none" fill-rule="evenodd">
        <g id="预约入库" transform="translate(-26.000000, -408.000000)" stroke="#FFA35E">
            <g id="Group-6" transform="translate(26.000000, 380.000000)">
                <g id="Group-2" transform="translate(0.000000, 29.000000)">
                    <use id="Combined-Shape" mask="url(#mask-2)" stroke-width="4" xlink:href="#path-1"></use>
                    <path d="M75.3097145,6.50146603e-13 C75.3097145,7.78656228 68.0994574,14.0988182 59.2051546,14.0988182 C50.3108518,14.0988182 43.1005948,7.78656228 43.1005948,6.50146603e-13 L75.3097145,0 Z" id="Combined-Shape" stroke-width="2" stroke-linecap="round" stroke-linejoin="round"></path>
                </g>
            </g>
        </g>
    </g>
</svg>